<svg width="1200" height="260" viewBox="0 0 1200 260" fill="none" xmlns="http://www.w3.org/2000/svg" role="img" aria-label="Recommendation pipeline animation">
  <defs>
    <linearGradient id="line" x1="40" y1="130" x2="1160" y2="130" gradientUnits="userSpaceOnUse">
      <stop offset="0" stop-color="#38BDF8"/>
      <stop offset="0.5" stop-color="#34D399"/>
      <stop offset="1" stop-color="#F59E0B"/>
    </linearGradient>
  </defs>
  <rect x="8" y="8" width="1184" height="244" rx="16" fill="#0B1220" stroke="#1E293B"/>
  <path d="M80 130H1120" stroke="url(#line)" stroke-width="6" stroke-linecap="round" stroke-dasharray="8 14"/>

  <g font-family="Segoe UI, Arial, sans-serif" font-size="14" font-weight="700" fill="#E2E8F0" text-anchor="middle">
    <rect x="60" y="84" width="170" height="92" rx="12" fill="#0EA5E9"/>
    <text x="145" y="120">Input Context</text>
    <text x="145" y="142" font-size="12" font-weight="600">task • gpu • adapter</text>

    <rect x="280" y="84" width="190" height="92" rx="12" fill="#2563EB"/>
    <text x="375" y="120">Statistical Prior</text>
    <text x="375" y="142" font-size="12" font-weight="600">median + IQR baseline</text>

    <rect x="520" y="84" width="190" height="92" rx="12" fill="#16A34A"/>
    <text x="615" y="120">Safety Clamp</text>
    <text x="615" y="142" font-size="12" font-weight="600">VRAM + OOM checks</text>

    <rect x="760" y="84" width="190" height="92" rx="12" fill="#7C3AED"/>
    <text x="855" y="120">ML Re-Rank</text>
    <text x="855" y="142" font-size="12" font-weight="600">confidence calibrated</text>

    <rect x="1000" y="84" width="150" height="92" rx="12" fill="#F59E0B"/>
    <text x="1075" y="120">Output</text>
    <text x="1075" y="142" font-size="12" font-weight="600">config + notebook</text>
  </g>

  <circle r="10" fill="#F8FAFC">
    <animateMotion dur="4.6s" repeatCount="indefinite" path="M80 130H1120"/>
  </circle>
  <circle r="6" fill="#22D3EE" opacity="0.85">
    <animateMotion dur="4.6s" begin="1.5s" repeatCount="indefinite" path="M80 130H1120"/>
  </circle>
</svg>
